<?xml version="1.0" standalone="no"?>
<!DOCTYPE svg PUBLIC "-//W3C//DTD SVG 1.0//EN" "http://www.w3.org/TR/2001/REC-SVG-20010904/DTD/svg10.dtd">
<svg xmlns="http://www.w3.org/2000/svg" xmlns:xlink="http://www.w3.org/1999/xlink" id="body_1" width="6" height="4">

<g transform="matrix(0.01 0 0 0.01 0 0)">
	<g transform="matrix(1 0 0 1 -6.5512586 -405.36993)">
		<path  d="M6.5512586 405.36993L6.5512586 605.36993L6.5512586 695.95605L6.5512586 750.67596L6.5512586 805.36993L306.55127 805.36993L606.5513 805.36993L606.5513 796.397L606.5513 787.4239L606.5513 605.36993L606.5513 405.36993L306.55127 405.36993L6.5512586 405.36993z" stroke="none"  fill="#00833D" fill-rule="nonzero" />
		<path  d="M244.39656 551.7133C 243.10472 551.71106 241.59668 551.91187 239.76086 552.232C 230.6605 553.8189 225.99855 556.80365 211.37688 570.4374C 198.40068 582.5368 197.7487 582.99176 187.03296 588.2538C 179.53885 591.9338 172.05728 596.56 163.59546 602.6988C 156.75844 607.6589 149.29988 612.37695 147.02087 613.2019C 144.74187 614.02686 140.26672 616.2882 137.07613 618.23303C 127.99329 623.76935 125.1421 625.01624 113.32784 628.58057C 95.131195 634.0704 87.82424 638.69147 80.02329 649.6386C 73.44082 658.8759 68.54303 662.2367 57.932472 664.75793C 46.490765 667.4767 41.71761 670.2952 25.223566 684.1822C 20.836489 687.8759 14.828407 692.0914 11.886204 693.5442L11.886204 693.5442L6.5512586 696.1895L6.5512586 750.7797L6.5512586 805.36993L306.55127 805.36993L606.5513 805.36993L606.5513 796.37103L606.5513 787.3461L602.8738 785.94574C 600.85284 785.17285 596.9266 783.0513 594.14624 781.2518C 591.36584 779.4522 588.9655 777.98413 588.8113 777.9841C 588.8048 777.9841 588.7925 778.00507 588.7854 778.01L588.7854 778.01L588.9667 777.1542L581.81885 772.0194C 577.8783 769.202 571.5933 764.36993 567.86 761.2569C 564.1266 758.144 560.8574 755.9264 560.6086 756.3295C 560.5848 756.36804 560.53973 756.4175 560.47906 756.4592C 560.4346 755.9092 559.2494 754.3005 557.5526 752.5691L557.5526 752.5691L553.97876 748.9384L549.55023 749.1978C 549.8439 749.1608 550.13477 749.1351 550.4307 749.09406L550.4307 749.09406L554.3931 748.52344L548.1776 742.3513C 543.3636 737.5688 542.0577 736.4888 540.0457 736.36066C 540.1661 736.30896 540.2529 736.2366 540.2529 736.1532C 540.2529 735.96735 535.31165 731.7418 529.2723 726.73926C 517.2041 716.743 505.67093 705.1641 501.35443 698.7309C 495.1872 689.53955 490.09296 683.35 486.67038 680.8886C 483.38336 678.5248 468.8644 672.7759 467.45422 673.18634C 466.8399 671.9187 466.121 670.9301 465.77087 670.9301C 464.42014 670.9301 452.8041 662.8464 447.56473 658.2486C 444.38425 655.4576 442.1467 653.9793 440.10617 653.34717C 440.3059 653.3379 440.46124 653.27686 440.54642 653.1915C 441.13544 652.60175 424.8823 637.6001 418.74048 633.0671C 415.10748 630.3857 405.4284 624.8293 397.24533 620.72266C 380.73657 612.4379 378.0009 610.22656 367.87723 597.0453C 359.0531 585.55597 341.5312 572.9805 334.41727 573.03076C 330.18692 573.0606 325.394 575.7805 318.46423 582.1334C 314.86615 585.432 310.35315 588.9096 308.4159 589.86163L308.4159 589.86163L304.8938 591.5992L300.75015 586.9571C 295.09995 580.60895 288.5309 576.6725 273.42798 570.593C 266.37943 567.7557 259.60382 564.8327 258.38138 564.10956C 257.15894 563.3865 254.7934 560.63904 253.12411 558.0152C 250.17888 553.3857 248.27208 551.72003 244.39656 551.7133zM422.57336 644.01105C 423.00174 644.23413 423.47366 644.50757 423.99774 644.815C 423.47278 644.5053 422.99158 644.234 422.57336 644.01105zM471.80505 679.2548C 472.66354 680.203 473.54172 681.1525 474.7574 682.4706C 476.1267 683.9552 477.23477 685.1249 478.2018 686.0753C 477.2645 685.17993 476.19327 684.1073 474.91278 682.75586C 473.82834 681.6113 472.787 680.4109 471.80505 679.2548zM493.92178 695.204C 494.4688 695.65436 495.0055 696.1394 495.50153 696.6303C 494.99844 696.13184 494.47757 695.6613 493.92178 695.204zM490.37378 720.02246C 491.033 720.4662 491.66406 720.9286 492.29022 721.37103C 494.19443 722.7163 496.13043 724.1902 498.68695 726.2984C 496.57547 724.57983 494.27087 722.816 492.29022 721.37103C 491.57748 720.851 490.97702 720.4355 490.37378 720.02246zM501.6393 728.788C 503.8497 730.6625 506.64972 733.0374 510.0561 735.99756C 507.63168 733.956 504.95123 731.66876 501.6393 728.788zM534.4777 735.9457C 534.8656 736.02515 535.25726 736.1156 535.6431 736.1791C 535.88306 736.21857 536.10846 736.2501 536.34235 736.2828C 536.1095 736.2564 535.8785 736.21704 535.6431 736.1791C 535.25806 736.117 534.87054 736.03925 534.4777 735.9457zM521.6065 744.789C 526.80334 747.7665 532.8709 749.4003 539.76086 749.66455C 536.3999 749.6638 534.0227 749.3506 531.2146 748.6272C 527.53613 747.6796 524.8461 746.7413 521.6065 744.789zM557.81165 757.2371C 557.0642 757.38885 556.2536 757.5435 555.3772 757.6521C 554.7142 757.7343 554.13556 757.7972 553.5903 757.88556C 554.07806 757.80414 554.5884 757.729 555.17004 757.6521C 556.1208 757.52637 557.00183 757.38007 557.81165 757.2371zM570.6051 778.50275C 570.7551 778.6517 570.92126 778.8267 571.0713 778.9955C 570.9225 778.82794 570.75397 778.6509 570.6051 778.50275zM571.8482 779.955C 572.3083 780.55884 572.78973 781.2432 573.37616 782.10754C 572.7889 781.24146 572.3089 780.5598 571.8482 779.955zM587.853 781.9001C 586.8322 786.22314 582.8951 788.7587 578.84064 787.70917C 581.0875 788.1777 583.6647 787.567 585.34094 786.0753C 586.3044 785.2181 587.2791 783.5681 587.853 781.9001zM543.9563 790.35443C 545.0128 790.615 546.05695 790.9726 547.2971 791.46954C 546.0521 790.9818 544.982 790.6202 543.9563 790.35443zM559.0288 795.3077C 559.3473 795.3457 559.6525 795.38257 559.90936 795.38556L559.90936 795.38556L563.4055 795.41144L560.1165 795.41144C 560.0562 795.41144 559.9749 795.3881 559.90936 795.38556C 559.65173 795.3753 559.3606 795.3559 559.0288 795.3077z" stroke="none"  fill="#000000" fill-rule="nonzero" />
		<path  d="M561.38477 792.3074C 557.38983 786.1493 556.74615 785.5167 551.77356 782.86273C 547.91516 780.8034 545.9737 779.0555 543.51105 775.424C 538.9237 768.65955 536.797 767.2036 531.5036 767.2036C 525.8563 767.2036 524.50336 766.634 524.50336 764.2565C 524.50336 761.015 521.2911 758.4032 509.1887 751.8049C 492.37015 742.63513 487.58768 738.68256 477.08368 725.2708C 471.73956 718.4474 468.06693 715.06555 462.58878 711.92346C 460.4056 710.6713 458.46014 709.5227 458.2655 709.37103C 458.0709 709.2193 458.63028 708.5508 459.5086 707.88525C 460.59198 707.0645 463.2378 706.66876 467.7354 706.6546C 475.18143 706.631 477.27182 707.55774 481.58084 712.7926C 482.96426 714.47327 486.5683 717.48944 489.5898 719.4953C 494.98547 723.07715 497.94073 725.4689 510.8995 736.7407C 514.4637 739.8409 519.2829 743.4678 521.60895 744.8005C 529.3413 749.2306 539.0018 750.66547 550.4299 749.0811L550.4299 749.0811L554.395 748.53143L548.1741 742.3512C 542.43066 736.64545 541.7099 736.18536 538.78577 736.3581C 533.9678 736.6428 528.87415 734.4413 521.97473 729.09216C 518.5329 726.42377 513.49835 723.11816 510.7869 721.74646C 504.2194 718.42377 503.22577 717.142 501.74197 710.0786C 501.04758 706.7731 499.89816 702.9429 499.18768 701.567C 496.75916 696.8644 491.87064 692.8418 486.29086 690.9549C 481.71616 689.40784 480.17264 688.29407 474.91818 682.74854C 471.57443 679.21954 468.3057 675.1185 467.65433 673.63513C 467.003 672.15173 466.15 670.93805 465.7588 670.93805C 464.40805 670.93805 452.80188 662.84064 447.5625 658.2429C 443.80377 654.94446 441.36758 653.47186 439.00952 653.0729C 437.19604 652.7661 433.22137 650.83746 430.17688 648.7871C 423.373 644.2048 420.08347 642.4512 420.08347 643.4063C 420.08347 644.82996 425.0003 650.89813 428.31552 653.566C 430.1691 655.0576 431.68567 656.589 431.68567 656.96906C 431.68567 657.34906 430.5136 657.66003 429.0811 657.66003C 426.38205 657.66003 423.5289 655.1337 415.52545 645.65735C 412.63852 642.23914 411.6262 641.6266 407.68433 640.91296C 401.15808 639.73157 398.99472 638.3276 395.29596 632.8734C 391.94693 627.93494 389.12308 626.0013 383.6194 624.87787C 379.46115 624.02905 377.15152 621.54895 376.5062 617.2395C 375.45273 610.20483 370.0057 606.4989 359.41257 605.60956C 354.6288 605.20795 353.78513 604.9037 353.78513 603.57996C 353.78513 602.7235 354.71027 601.60065 355.84103 601.0847C 360.44467 598.98425 359.235 595.17816 352.61612 590.9383C 350.17593 589.3752 347.18454 586.7901 345.96863 585.1937C 343.0229 581.32635 338.7466 579.3341 334.93005 580.0511C 332.78525 580.45404 330.5593 582.05786 326.76065 585.93744C 323.88892 588.8703 321.12598 591.26996 320.62076 591.26996C 320.08368 591.26996 319.81006 592.39 319.9619 593.96704C 320.18396 596.27344 320.8555 597.00433 324.5971 599.0122C 327.00366 600.30365 332.78403 604.92926 337.4424 609.2913C 342.1008 613.6534 348.62314 619.0549 351.9365 621.2947C 355.24985 623.5345 361.0818 628.3109 364.89633 631.909C 372.7841 639.34906 378.1107 642.4011 384.5417 643.1656C 392.08713 644.0625 394.10825 645.10046 401.5315 651.89056C 406.9619 656.8578 410.64062 659.3918 416.67307 662.3203C 433.57153 670.52386 447.02316 678.1169 450.99823 681.69574C 455.66934 685.9013 458.15997 690.5989 458.18683 695.2542C 458.2031 698.07605 457.90207 698.5354 455.3311 699.6111C 448.68274 702.39276 445.152 700.2808 433.00485 686.256C 423.31302 675.06604 416.45364 669.4277 410.28433 667.5801C 408.60895 667.0783 401.64423 666.39777 394.80722 666.0677C 379.10983 665.3099 377.36832 664.577 366.27325 654.06055C 344.9684 633.8667 330.0998 622.78864 316.6885 617.11676C 309.37683 614.0245 305.48798 611.3991 296.1751 603.268C 286.93967 595.20447 284.28015 593.57605 275.10736 590.3685C 265.83835 587.1273 264.0568 585.78015 260.9873 579.69104C 258.06903 573.90204 255.14793 570.31665 251.60925 568.1805C 249.0504 566.63574 242.73541 565.0126 242.73541 565.89954C 242.73541 566.8917 247.8743 579.0374 251.78526 587.28864C 254.10066 592.1736 255.99509 596.4 255.99509 596.68066C 255.99509 598.36523 247.03789 593.90826 246.40398 591.90826C 245.9133 590.36017 245.40756 590.2602 240.42398 590.7262C 231.6179 591.5497 231.47414 593.3432 239.90723 597.17224C 246.02719 599.95105 250.0992 603.31976 253.73544 608.6121C 255.17397 610.7059 258.2705 614.5098 260.6167 617.0654C 262.96286 619.621 266.29398 624.40173 268.01913 627.6893C 271.40808 634.1474 274.59955 636.7214 281.4644 638.53326C 285.01797 639.4711 286.65805 641.27606 286.65805 644.2489C 286.65805 645.1486 287.96332 647.44916 289.55862 649.36127C 291.15393 651.2734 292.45917 653.6673 292.45917 654.68115C 292.45917 655.99194 293.47675 657.0856 295.98126 658.4665C 297.91843 659.53455 301.50702 662.1241 303.95593 664.22095C 306.40485 666.3178 313.49048 671.8531 319.70178 676.5215C 330.9984 685.0121 332.2963 685.71515 357.51443 697.00494C 365.44736 700.5564 365.08322 700.16205 365.67633 705.84436C 366.32263 712.0365 368.4723 717.034 371.85706 720.2132C 376.75446 724.8131 384.33392 722.76953 385.71408 716.477C 386.1783 714.3603 386.59192 714.0916 389.38486 714.0916C 394.86633 714.0916 395.2878 716.0291 392.50677 728.4427C 391.72104 731.9502 390.7966 733.7559 389.08865 735.11975C 387.58572 736.3197 386.86377 737.5697 387.07214 738.61084C 387.35614 740.03 387.97885 740.1987 392.05536 739.9611C 401.5478 739.40784 407.56104 746.09485 404.2046 753.4716C 402.99496 756.1301 402.40616 756.11334 395.03598 753.21C 391.71957 751.9036 386.5416 750.02356 383.52942 749.0321C 376.52588 746.72687 371.1974 743.32983 368.2364 739.28253C 363.4562 732.7487 361.8781 731.531 355.89423 729.759C 352.6831 728.80804 346.0426 726.37964 341.13754 724.3625C 336.23248 722.3454 328.97452 719.9233 325.00876 718.98004C 316.22006 716.88983 312.9136 715.2456 308.67102 710.85535C 304.61865 706.662 301.1535 705.44696 295.3257 706.1761C 288.87665 706.983 285.86533 705.32385 282.58173 699.15466C 281.15546 696.475 278.55374 693.1446 276.80014 691.7537C 275.04654 690.363 273.18408 688.1911 272.66132 686.92725C 272.08405 685.5317 270.17105 683.81506 267.78943 682.5555C 265.26315 681.2194 263.02216 679.15295 261.49057 676.74713C 252.778 663.0615 243.1844 647.2961 237.50317 637.32806C 228.20436 621.01276 225.56126 617.33527 218.04575 610.2554C 214.41003 606.83044 210.5963 602.37134 209.57076 600.3462C 206.56638 594.4135 204.31577 593.94653 198.82477 598.11646C 192.4796 602.935 191.23009 603.55365 185.75134 604.5888C 179.69434 605.7333 177.2658 607.5751 177.2658 611.0242C 177.2658 614.2277 181.00204 617.5244 190.11108 622.3581C 194.2133 624.5349 199.24783 627.50507 201.29895 628.9584C 203.35005 630.41174 208.28508 633.5643 212.26569 635.964C 220.5144 640.9368 221.32307 641.87006 223.77393 649.2451C 225.26785 653.7406 226.68506 655.8129 232.58218 662.1252C 238.89703 668.8845 240.1973 670.8709 245.39815 681.7037C 248.58159 688.3344 252.30566 696.0574 253.67384 698.86584C 256.64706 704.9689 260.81024 709.4869 267.80762 714.2043C 270.65463 716.1236 275.5107 719.8608 278.5989 722.5091C 286.07898 728.9237 289.83707 731.024 299.91772 734.4235C 309.68512 737.7174 312.9559 739.4923 324.36523 747.6904C 328.92325 750.96564 334.0058 754.45764 335.6598 755.4507C 339.90125 757.9971 344.67593 763.4301 348.62915 770.20825C 352.66965 777.13617 358.10464 782.3838 364.0734 785.1202C 368.33508 787.0739 368.83273 787.1117 385.4891 786.7453C 401.1636 786.40045 402.93243 786.20795 407.37613 784.3628C 420.8019 778.7882 426.22314 778.4469 435.89078 782.5675C 450.24973 788.68787 458.29733 790.21515 463.55276 787.81726C 465.8997 786.74646 466.35507 785.4609 464.38748 785.4609C 462.04288 785.4609 456.99783 782.3568 451.81363 777.7246C 443.27014 770.09094 433.95135 765.2451 419.6691 761.0095C 415.5669 759.7929 411.7553 758.6509 411.19894 758.4717C 409.7344 757.9998 411.7216 752.815 416.71484 744.07996C 422.93863 733.1923 423.26907 728.13367 417.97073 724.85455C 413.88443 722.3256 412.8676 720.40485 411.9155 713.4161C 411.4607 710.07776 410.52893 706.491 409.8449 705.4457C 408.9632 704.0981 405.3882 702.3941 397.5606 699.59033C 391.48822 697.41534 385.40115 695.07684 384.03375 694.39355C 379.84906 692.30286 372.77283 686.6655 373.28714 685.8323C 374.01566 684.65186 384.92896 684.91296 391.29114 686.26306C 402.98782 688.7451 415.1586 697.4219 420.5929 707.1528C 422.31604 710.2383 426.67496 715.6777 430.79074 719.8784C 435.84915 725.0412 439.05075 729.20905 441.59607 733.94464C 444.78406 739.876 445.86215 741.10236 450.68448 744.2838C 453.69373 746.26904 457.951 749.9975 460.14505 752.5692C 464.05893 757.15674 464.217 757.2451 468.51428 757.2451C 472.1332 757.2451 473.4378 757.6777 476.0227 759.73474C 477.74335 761.10406 479.9645 762.22437 480.95862 762.22437C 481.95273 762.22437 484.7315 762.80884 487.1337 763.5232C 490.72296 764.5905 493.0209 766.25433 500.02805 772.8593C 510.10703 782.3597 515.3187 786.7504 518.4704 788.39667C 520.13947 789.26855 523.85596 789.60944 531.9619 789.6343C 542.81305 789.66754 543.3493 789.75385 549.7796 792.50305C 553.6743 794.1682 557.8522 795.35443 559.90656 795.3785L559.90656 795.3785L563.4037 795.4194L561.38477 792.3074zM585.34906 786.0833C 586.5477 785.01666 587.774 782.70123 588.2091 780.683L588.2091 780.683L588.9708 777.1498L581.80615 772.02734C 577.8656 769.21 571.5869 764.3579 567.8535 761.2449C 564.1201 758.13196 560.86194 755.91486 560.6131 756.318C 560.36426 756.7212 558.01135 757.3175 555.38446 757.64307C 549.6922 758.34845 548.5365 759.1458 548.5365 762.3672C 548.5365 768.2623 552.48676 771.5006 564.5089 775.4611C 569.6983 777.17065 570.36957 777.6751 573.3971 782.1394C 575.19824 784.7954 577.1474 787.16 577.7285 787.394C 580.1769 788.3799 583.389 787.82745 585.34906 786.0833zM213.77406 779.9085C 216.9359 778.03827 218.2879 774.52747 218.2879 768.1875L218.2879 768.1875L218.2879 762.9474L220.87675 763.43365C 222.30064 763.7011 226.58931 765.30194 230.40714 766.9909C 236.76826 769.80505 237.9723 770.0591 244.80724 770.0289C 252.44325 769.9952 260.03067 768.3222 264.1911 765.755C 268.34955 763.18896 273.39838 757.76117 273.39838 755.8567C 273.39838 753.4142 271.9075 752.68463 259.83875 749.22156C 236.25943 742.45557 219.59515 731.18335 209.13092 714.92145C 207.22185 711.95465 200.97551 700.19116 195.25017 688.7804C 182.22415 662.81903 175.02881 650.74036 168.16035 643.30524C 160.05435 634.5305 159.81354 634.4634 136.38503 634.4417L136.38503 634.4417L116.63686 634.4235L117.19714 636.978C 118.22198 641.6505 116.95391 644.8397 111.81204 650.5214C 108.28609 654.41754 106.76463 656.81946 106.39019 659.0808C 106.10392 660.80975 105.46545 663.28577 104.9714 664.5831C 103.92775 667.32367 105.26666 668.75995 108.06689 667.9037C 112.15147 666.6547 113.51872 665.90576 113.06273 665.1669C 112.79288 664.7297 113.43836 663.8035 114.49715 663.1088C 116.08695 662.06573 117.34029 661.99384 121.69405 662.6959C 127.67562 663.6606 128.87119 664.1811 131.45049 666.94354C 134.27013 669.96344 135.89938 675.56866 136.4277 684.0671L136.4277 684.0671L136.90855 691.8019L139.02057 691.2711C 140.1822 690.9791 143.62701 690.74817 146.67574 690.7578C 159.77283 690.7992 173.36382 699.7237 179.52983 712.33124C 181.49846 716.3565 181.83131 718.1126 181.95729 725.1381C 182.05489 730.58044 182.49454 733.87024 183.28323 735.05975C 184.3856 736.7223 184.69499 736.7698 187.98936 735.7814C 189.92877 735.19946 191.74062 734.9488 192.01569 735.2242C 192.29076 735.49963 192.53413 740.6604 192.55655 746.6925C 192.60654 760.1524 191.45647 763.89996 185.86865 768.48505C 182.1168 771.5637 177.47997 777.6532 178.27863 778.453C 179.27959 779.4553 188.40775 775.0849 191.53474 772.10614C 195.38493 768.4384 195.49783 768.38245 195.49783 770.14124C 195.49783 772.3114 198.65196 777.7449 200.97322 779.57324C 203.75102 781.7613 210.34972 781.93414 213.77406 779.9085zM132.5144 749.53705C 135.37306 748.0959 135.81468 742.5775 133.38625 738.6427C 130.55948 734.0626 119.9979 724.60876 111.70845 719.2386C 96.31649 709.2671 98.94216 712.4504 89.42092 692.2182C 87.0713 687.22546 86.29118 686.32745 83.05974 684.89606C 79.65471 683.38776 78.20709 683.30774 63.887497 683.8364C 53.03216 684.2372 47.60498 684.77435 45.746296 685.6319C 42.56558 687.0995 38.868 691.7061 38.868 694.20123C 38.868 697.63324 41.598747 701.7257 46.4195 705.5183C 51.83048 709.7753 54.482063 713.5733 59.566288 724.3491C 63.551205 732.7949 67.870834 737.9096 74.85795 742.4553C 83.01423 747.76166 88.46055 749.03375 105.99507 749.7281C 129.50195 750.659 130.30054 750.65326 132.5144 749.53705z" stroke="none"  fill="#FFFFFF" fill-rule="nonzero" />
		<path  d="M466.30173 626.1331C 462.6018 622.04474 464.0849 619.5939 490.95557 585.3917C 502.23764 571.03143 511.57983 558.9563 511.71606 558.5581C 511.9161 557.97327 480.32382 532.6451 477.28036 530.9504C 476.81027 530.6886 474.31027 530.7595 471.72482 531.108L471.72482 531.108L467.02396 531.74146L456.1265 523.26996C 450.13293 518.61066 445.22906 514.4548 445.22906 514.0347C 445.22906 513.6147 447.056 513.03064 449.2889 512.73694C 451.52182 512.44324 453.92566 512.1192 454.6308 512.01697C 455.66763 511.86658 455.85767 510.63248 455.62436 505.56485C 455.4657 502.11847 455.67023 499.4381 456.07886 499.60852C 456.48752 499.77893 461.70084 503.72534 467.66403 508.37827L467.66403 508.37827L478.50616 516.8382L479.07397 521.85706L479.6418 526.87585L496.56656 540.1115C 505.8752 547.3911 513.99774 553.51526 514.61664 553.72076C 515.30035 553.94775 523.9591 543.47205 536.68207 527.0252C 548.19916 512.13715 559.7 497.73602 562.2395 495.02267C 566.2907 490.69415 567.2541 490.08932 570.09705 490.08932C 572.4765 490.08932 573.69073 490.59393 574.6678 491.9889C 576.9662 495.27026 576.2912 497.7341 571.7901 502.49335C 564.7028 509.98715 564.2042 516.2985 569.12415 536.24316C 573.6998 554.7922 573.4652 563.90234 568.28754 568.7391C 566.9489 569.9895 563.1681 571.86017 559.8856 572.8961C 553.64014 574.86725 548.2205 577.9607 548.2205 579.55444C 548.2205 580.069 550.98663 582.6543 554.3675 585.2996L554.3675 585.2996L560.5144 590.10925L560.7777 586.6363L561.0411 583.16327L568.51965 593.3957C 576.0496 603.69836 577.28564 606.1201 574.50256 605.1185C 565.83405 601.9988 551.3489 595.5974 551.85187 595.10864C 552.2051 594.76544 553.80597 594.36115 555.4094 594.2101L555.4094 594.2101L558.32477 593.9355L551.7475 588.9079C 548.13007 586.1427 544.9648 584.0858 544.7136 584.337C 544.46246 584.58813 543.9321 588.1967 543.53516 592.356C 542.70386 601.0655 541.9225 603.4834 539.12317 606.0082C 534.2796 610.3767 528.6993 611.4776 507.60333 612.22656C 490.38303 612.83795 489.97766 612.8951 485.3811 615.3582C 481.68146 617.3407 480.09122 618.8982 477.80148 622.7816C 475.0042 627.5259 474.7793 627.69617 471.31003 627.69617C 468.91388 627.69617 467.24484 627.17523 466.30173 626.1331zM487.53677 601.41583C 490.3667 600.58563 498.07587 599.97656 510.3586 599.6129C 523.7083 599.2176 529.2145 598.7558 530.00415 597.96515C 530.6321 597.3365 531.3296 593.6388 531.635 589.31934C 531.9375 585.04224 532.7819 580.54297 533.58386 578.93536C 534.36224 577.3751 534.70465 575.81244 534.34485 575.46265C 531.74756 572.9379 514.85986 560.1879 514.3565 560.3717C 513.88153 560.54517 494.23514 585.41205 480.79117 602.8562C 480.0131 603.8658 480.14893 603.95856 481.55386 603.377C 482.49405 602.9879 485.18634 602.10535 487.53677 601.41583zM539.4114 570.6363C 541.9295 567.2445 546.3243 564.5421 552.22815 562.75507C 555.665 561.71484 558.9577 560.4693 559.54535 559.98724C 561.3927 558.4717 560.6983 551.58997 557.5375 540.0893C 555.3098 531.98395 554.3302 526.3877 553.9162 519.4021L553.9162 519.4021L553.34875 509.82605L536.2547 531.73035C 526.853 543.7777 518.7304 554.2408 518.20447 554.9816C 517.40356 556.1098 518.8613 557.60236 527.17883 564.1698C 532.6406 568.4824 537.3761 572.0401 537.70197 572.0758C 538.0279 572.11145 538.7971 571.4636 539.4114 570.6363z" stroke="none"  fill="#FFF519" fill-rule="nonzero" />
		<path transform="matrix(1 0 0 1 6.5512586 405.36993)" d="M327.28125 21.09375C 306.9175 31.399487 292.9375 52.50544 292.9375 76.875C 292.9375 111.375 320.9375 139.375 355.4375 139.375C 382.12625 139.375 404.88794 122.6217 413.84375 99.0625C 403.37454 108.9361 389.2654 115 373.75 115C 341.4804 115 315.3125 88.832085 315.3125 56.5625C 315.3125 43.236893 319.76532 30.929754 327.28125 21.09375z" stroke="none"  fill="#FFFFFF" fill-rule="nonzero" />
		<path transform="matrix(1.1680995 0 0 1.1680995 -76.26154 391.81494)" d="M361.6144 62.60905L379.11853 56.96389L379.07834 38.57204L389.85626 53.474987L407.33554 47.75336L396.49255 62.60905L407.33554 77.46474L389.85626 71.74312L379.07834 86.646065L379.11853 68.25421L361.6144 62.60905z" stroke="none"  fill="#FFFFFF" fill-rule="nonzero" />
	</g>
</g>
</svg>
